HIERARCHY
ROOT Hips
{
	OFFSET 0.000000 103.266502 0.000000
	CHANNELS 6 Xposition Yposition Zposition Xrotation Yrotation Zrotation 
	JOINT Spine
	{
		OFFSET -0.002400 12.777504 0.315300
		CHANNELS 3 Xrotation Yrotation Zrotation
		JOINT Spine1
		{
			OFFSET -0.002067 5.816869 0.032633
			CHANNELS 3 Xrotation Yrotation Zrotation
			JOINT Spine1_split
			{
				OFFSET -0.002067 5.816869 0.032633
				CHANNELS 3 Xrotation Yrotation Zrotation
				JOINT Spine2
				{
					OFFSET -0.002067 5.816869 0.032633
					CHANNELS 3 Xrotation Yrotation Zrotation
					JOINT Neck
					{
						OFFSET -0.003700 21.199493 -0.826900
						CHANNELS 3 Xrotation Yrotation Zrotation
						JOINT Head
						{
							OFFSET 0.000000 20.442200 4.834800
							CHANNELS 3 Xrotation Yrotation Zrotation
							JOINT HeadTop_End
							{
								OFFSET 0.000000 34.668396 4.968400
								CHANNELS 3 Xrotation Yrotation Zrotation
								End Site
								{
									OFFSET 0.000000 0.000000 0.000000
								}
							}
						}
					}
					JOINT LeftShoulder
					{
						OFFSET 3.288150 8.794197 -1.372250
						CHANNELS 3 Xrotation Yrotation Zrotation
						JOINT LeftShoulder_split
						{
							OFFSET 3.288150 8.794197 -1.372250
							CHANNELS 3 Xrotation Yrotation Zrotation
							JOINT LeftArm
							{
								OFFSET 11.953299 -2.279007 -0.146200
								CHANNELS 3 Xrotation Yrotation Zrotation
								JOINT LeftForeArm
								{
									OFFSET 18.448900 0.000000 0.000000
									CHANNELS 3 Xrotation Yrotation Zrotation
									JOINT LeftHand
									{
										OFFSET 29.527798 0.000000 0.000000
										CHANNELS 3 Xrotation Yrotation Zrotation
										JOINT LeftHandThumb1
										{
											OFFSET 10.739754 -2.369614 9.225399
											CHANNELS 3 Xrotation Yrotation Zrotation
											JOINT LeftHandThumb2
											{
												OFFSET 4.926170 -2.844131 2.844125
												CHANNELS 3 Xrotation Yrotation Zrotation
												JOINT LeftHandThumb3
												{
													OFFSET 4.614891 -2.664413 2.664409
													CHANNELS 3 Xrotation Yrotation Zrotation
													JOINT LeftHandThumb4
													{
														OFFSET 4.432465 -2.559082 2.559083
														CHANNELS 3 Xrotation Yrotation Zrotation
														End Site
														{
															OFFSET 0.000000 0.000000 0.000000
														}
													}
												}
											}
										}
										JOINT LeftHandIndex1
										{
											OFFSET 26.467674 0.187653 6.405298
											CHANNELS 3 Xrotation Yrotation Zrotation
											JOINT LeftHandIndex2
											{
												OFFSET 8.792900 0.000000 0.000000
												CHANNELS 3 Xrotation Yrotation Zrotation
												JOINT LeftHandIndex3
												{
													OFFSET 10.075203 0.000000 0.000000
													CHANNELS 3 Xrotation Yrotation Zrotation
													End Site
													{
														OFFSET 0.000000 0.000000 0.000000
													}
												}
											}
										}
										JOINT LeftHandMiddle1
										{
											OFFSET 25.764404 0.000000 0.000000
											CHANNELS 3 Xrotation Yrotation Zrotation
											JOINT LeftHandMiddle2
											{
												OFFSET 9.393974 0.000000 0.000000
												CHANNELS 3 Xrotation Yrotation Zrotation
												JOINT LeftHandMiddle3
												{
													OFFSET 10.771950 0.000000 0.000000
													CHANNELS 3 Xrotation Yrotation Zrotation
													End Site
													{
														OFFSET 0.000000 0.000000 0.000000
													}
												}
											}
										}
										JOINT LeftHandRing1
										{
											OFFSET 24.660927 0.144547 -6.225808
											CHANNELS 3 Xrotation Yrotation Zrotation
											JOINT LeftHandRing2
											{
												OFFSET 9.393799 0.000000 0.000000
												CHANNELS 3 Xrotation Yrotation Zrotation
												JOINT LeftHandRing3
												{
													OFFSET 9.928497 0.000000 0.000000
													CHANNELS 3 Xrotation Yrotation Zrotation
													End Site
													{
														OFFSET 0.000000 0.000000 0.000000
													}
												}
											}
										}
										JOINT LeftHandPinky1
										{
											OFFSET 23.655350 0.125290 -12.815412
											CHANNELS 3 Xrotation Yrotation Zrotation
											JOINT LeftHandPinky2
											{
												OFFSET 8.425102 0.000000 0.000000
												CHANNELS 3 Xrotation Yrotation Zrotation
												JOINT LeftHandPinky3
												{
													OFFSET 8.147003 0.000000 0.000000
													CHANNELS 3 Xrotation Yrotation Zrotation
													End Site
													{
														OFFSET 0.000000 0.000000 0.000000
													}
												}
											}
										}
									}
								}
							}
						}
					}
					JOINT RightShoulder
					{
						OFFSET -3.249400 8.794197 -1.372250
						CHANNELS 3 Xrotation Yrotation Zrotation
						JOINT RightShoulder_split
						{
							OFFSET -3.249400 8.794197 -1.372250
							CHANNELS 3 Xrotation Yrotation Zrotation
							JOINT RightArm
							{
								OFFSET -11.953299 -2.279007 -0.146200
								CHANNELS 3 Xrotation Yrotation Zrotation
								JOINT RightForeArm
								{
									OFFSET -18.448900 0.000000 0.000000
									CHANNELS 3 Xrotation Yrotation Zrotation
									JOINT RightHand
									{
										OFFSET -29.527802 0.000000 0.000000
										CHANNELS 3 Xrotation Yrotation Zrotation
										JOINT RightHandThumb1
										{
											OFFSET -10.739754 -2.369614 9.225399
											CHANNELS 3 Xrotation Yrotation Zrotation
											JOINT RightHandThumb2
											{
												OFFSET -4.926170 -2.844131 2.844125
												CHANNELS 3 Xrotation Yrotation Zrotation
												JOINT RightHandThumb3
												{
													OFFSET -4.614891 -2.664413 2.664409
													CHANNELS 3 Xrotation Yrotation Zrotation
													JOINT RightHandThumb4
													{
														OFFSET -4.432465 -2.559082 2.559083
														CHANNELS 3 Xrotation Yrotation Zrotation
														End Site
														{
															OFFSET 0.000000 0.000000 0.000000
														}
													}
												}
											}
										}
										JOINT RightHandIndex1
										{
											OFFSET -26.467674 0.187653 6.405298
											CHANNELS 3 Xrotation Yrotation Zrotation
											JOINT RightHandIndex2
											{
												OFFSET -8.792900 0.000000 0.000000
												CHANNELS 3 Xrotation Yrotation Zrotation
												JOINT RightHandIndex3
												{
													OFFSET -10.075203 0.000000 0.000000
													CHANNELS 3 Xrotation Yrotation Zrotation
													End Site
													{
														OFFSET 0.000000 0.000000 0.000000
													}
												}
											}
										}
										JOINT RightHandMiddle1
										{
											OFFSET -25.764404 0.000000 0.000000
											CHANNELS 3 Xrotation Yrotation Zrotation
											JOINT RightHandMiddle2
											{
												OFFSET -9.393974 0.000000 0.000000
												CHANNELS 3 Xrotation Yrotation Zrotation
												JOINT RightHandMiddle3
												{
													OFFSET -10.771950 0.000000 0.000000
													CHANNELS 3 Xrotation Yrotation Zrotation
													End Site
													{
														OFFSET 0.000000 0.000000 0.000000
													}
												}
											}
										}
										JOINT RightHandRing1
										{
											OFFSET -24.660927 0.144547 -6.225808
											CHANNELS 3 Xrotation Yrotation Zrotation
											JOINT RightHandRing2
											{
												OFFSET -9.393799 0.000000 0.000000
												CHANNELS 3 Xrotation Yrotation Zrotation
												JOINT RightHandRing3
												{
													OFFSET -9.928497 0.000000 0.000000
													CHANNELS 3 Xrotation Yrotation Zrotation
													End Site
													{
														OFFSET 0.000000 0.000000 0.000000
													}
												}
											}
										}
										JOINT RightHandPinky1
										{
											OFFSET -23.655350 0.125290 -12.815412
											CHANNELS 3 Xrotation Yrotation Zrotation
											JOINT RightHandPinky2
											{
												OFFSET -8.425102 0.000000 0.000000
												CHANNELS 3 Xrotation Yrotation Zrotation
												JOINT RightHandPinky3
												{
													OFFSET -8.147003 0.000000 0.000000
													CHANNELS 3 Xrotation Yrotation Zrotation
													End Site
													{
														OFFSET 0.000000 0.000000 0.000000
													}
												}
											}
										}
									}
								}
							}
						}
					}
				}
			}
		}
	}
	JOINT LeftUpLeg
	{
		OFFSET 11.394100 -6.187798 -0.413800
		CHANNELS 3 Xrotation Yrotation Zrotation
		JOINT LeftLeg
		{
			OFFSET 0.430247 -32.302673 3.732800
			CHANNELS 3 Xrotation Yrotation Zrotation
			JOINT LeftFoot
			{
				OFFSET -0.430247 -48.264931 -6.423300
				CHANNELS 3 Xrotation Yrotation Zrotation
				JOINT LeftToeBase
				{
					OFFSET 4.230900 -16.068199 23.438400
					CHANNELS 3 Xrotation Yrotation Zrotation
					JOINT LeftToe_End
					{
						OFFSET 4.510700 0.695400 19.974600
						CHANNELS 3 Xrotation Yrotation Zrotation
						End Site
						{
							OFFSET 0.000000 0.000000 0.000000
						}
					}
				}
			}
		}
	}
	JOINT RightUpLeg
	{
		OFFSET -11.333700 -6.187798 -0.413800
		CHANNELS 3 Xrotation Yrotation Zrotation
		JOINT RightLeg
		{
			OFFSET -0.430392 -32.302628 3.733000
			CHANNELS 3 Xrotation Yrotation Zrotation
			JOINT RightFoot
			{
				OFFSET 0.430392 -48.264973 -6.423500
				CHANNELS 3 Xrotation Yrotation Zrotation
				JOINT RightToeBase
				{
					OFFSET -4.230900 -16.068199 23.438400
					CHANNELS 3 Xrotation Yrotation Zrotation
					JOINT RightToe_End
					{
						OFFSET -4.510700 0.695400 19.974600
						CHANNELS 3 Xrotation Yrotation Zrotation
						End Site
						{
							OFFSET 0.000000 0.000000 0.000000
						}
					}
				}
			}
		}
	}
}
MOTION
Frames: 4
Frame Time: 0.016667
0.034666 58.964668 3.985049 0.144854 0.135857 0.921906 10.430454 0.052482 -1.540209 -0.199272 0.216427 -0.355483 0.000000 0.000000 0.000000 -0.199596 0.248527 -0.300892 -1.001769 -1.276608 0.469464 -8.883412 -4.319392 -5.320496 -0.000000 0.000000 -0.000000 0.823522 -15.262025 -7.868748 0.000000 0.000000 0.000000 4.746755 -21.216405 -54.862197 -0.000018 -62.197547 -0.000013 31.062970 4.315294 41.770217 6.610620 1.798229 20.801486 2.716385 20.172583 -24.389168 -5.537244 29.849525 5.070899 -0.000001 0.000003 -0.000000 -0.224160 2.792767 -26.913884 0.396835 2.121290 -21.189284 0.000001 0.000001 -0.000002 1.299142 7.334317 -16.510941 0.329963 1.940093 -19.302453 -0.000001 0.000001 0.000000 1.797268 9.808446 -14.182651 0.205955 1.541210 -15.221567 -0.000003 -0.000001 0.000001 2.041518 10.867636 -13.920346 0.168528 1.396431 -13.761323 -0.000000 0.000003 -0.000002 3.171098 -4.378724 8.782890 0.000000 0.000000 0.000000 -3.950247 37.253409 63.733663 0.000009 55.137925 -0.000004 43.537296 4.741012 -36.277962 -9.383515 -1.613344 -17.604703 3.563415 -24.331434 34.658818 -6.607965 -37.497165 -11.176213 0.000001 0.000004 0.000001 2.952101 1.011192 13.530168 0.472465 -2.045708 26.006736 -0.000001 -0.000000 -0.000001 0.105311 -3.658229 2.530032 0.585005 -2.261680 29.000631 -0.000000 -0.000000 -0.000003 0.455246 -7.625811 4.309853 0.107462 -0.995699 12.318862 0.000002 0.000001 -0.000002 -11.164719 -10.228241 7.169470 0.029113 -0.520500 6.403079 -0.000000 0.000000 0.000001 -101.044022 -9.223219 10.651607 82.107856 6.326262 0.196538 20.502030 -7.830602 -5.551902 -0.103122 -0.000000 -0.000003 -0.000000 0.000001 0.000000 -102.272835 9.712742 -6.152359 82.196552 -6.305515 -1.871455 21.475831 1.049872 6.488033 -0.195505 0.000004 -0.000000 0.000000 -0.000000 -0.000000 
0.033306 58.947403 4.015204 0.221313 0.149206 0.924547 10.467080 0.047714 -1.542515 -0.063329 0.215446 -0.380943 0.000000 0.000000 0.000000 -0.135199 0.251406 -0.311500 -0.819936 -1.276514 0.424692 -9.824156 -4.410228 -5.195474 0.000000 -0.000000 0.000000 1.153612 -14.769744 -6.772559 0.000000 0.000000 0.000000 2.903378 -20.762692 -57.237730 -0.000014 -61.769649 -0.000015 32.795191 3.652912 41.345051 6.533108 1.838508 20.872479 2.677544 20.203959 -24.333459 -5.498108 29.834434 4.956423 -0.000000 0.000002 -0.000000 -0.213802 2.829552 -27.080112 0.399409 2.127917 -21.258943 0.000000 -0.000002 0.000003 1.306680 7.335246 -16.626917 0.323882 1.922678 -19.122289 0.000002 0.000001 -0.000001 1.816472 9.843944 -14.270838 0.205430 1.539300 -15.202384 -0.000002 0.000000 -0.000001 2.011313 10.855343 -13.919872 0.168834 1.397695 -13.774339 0.000000 0.000001 -0.000004 3.187853 -4.727845 8.245240 0.000000 0.000000 0.000000 -4.932282 37.148374 65.022110 -0.000002 54.880109 0.000030 44.176523 5.104108 -36.335367 -9.372625 -1.608907 -17.589747 3.594645 -24.360884 34.677369 -6.576860 -37.532709 -11.143436 -0.000002 -0.000002 0.000004 2.953639 1.011711 13.517897 0.476481 -2.053918 26.119024 0.000001 -0.000002 -0.000004 0.105328 -3.658259 2.530060 0.587665 -2.266499 29.068045 0.000002 -0.000000 0.000002 0.455258 -7.625863 4.309872 0.108246 -0.999308 12.364094 0.000001 0.000000 -0.000001 -11.166273 -10.222013 7.155016 0.029205 -0.521240 6.412214 0.000001 -0.000001 0.000003 -101.233089 -9.197547 10.574607 82.183268 6.358437 0.221305 20.536212 -7.772681 -5.352313 -0.115869 -0.000002 -0.000001 -0.000000 -0.000000 -0.000000 -102.501216 9.745379 -6.054464 82.373871 -6.352161 -1.913861 21.532277 0.990956 6.406026 -0.232756 -0.000001 -0.000002 -0.000000 0.000001 0.000000 
0.031450 58.928551 4.046552 0.269844 0.161560 0.928863 10.538148 0.040734 -1.545971 0.117320 0.217353 -0.407599 0.000000 0.000000 0.000000 -0.022414 0.256674 -0.330249 -0.608621 -1.274648 0.376579 -10.758939 -4.494758 -5.054918 -0.000000 -0.000000 -0.000000 1.483758 -14.226188 -5.573876 0.000000 0.000000 0.000000 1.069125 -20.426970 -59.574180 0.000007 -61.355104 0.000003 34.405927 2.995960 41.065081 6.452963 1.879061 20.945111 2.637619 20.235397 -24.276313 -5.454166 29.824079 4.818342 -0.000002 -0.000005 -0.000001 -0.202165 2.869511 -27.281741 0.403272 2.137823 -21.362740 -0.000001 -0.000001 0.000002 1.314184 7.336099 -16.743276 0.317887 1.905279 -18.942396 -0.000000 0.000002 -0.000002 1.837831 9.880261 -14.375272 0.203786 1.533229 -15.140801 -0.000003 -0.000001 0.000001 1.980429 10.842486 -13.919526 0.169163 1.399060 -13.787684 -0.000001 -0.000001 -0.000001 3.198766 -5.102190 7.675742 0.000000 0.000000 0.000000 -5.994475 37.040157 66.362378 0.000010 54.665726 0.000001 44.858425 5.503244 -36.428855 -9.351721 -1.600122 -17.560049 3.651746 -24.412469 34.712353 -6.515471 -37.600372 -11.078753 -0.000001 0.000001 0.000000 2.954276 1.012341 13.493646 0.483865 -2.068894 26.324299 -0.000000 0.000000 -0.000007 0.105321 -3.658245 2.530050 0.592580 -2.275297 29.192082 0.000001 -0.000002 -0.000001 0.455252 -7.625836 4.309872 0.109723 -1.006017 12.448365 -0.000000 0.000001 -0.000001 -11.173440 -10.204960 7.126052 0.029271 -0.521839 6.419541 0.000002 -0.000000 0.000001 -101.417517 -9.192484 10.493075 82.196996 6.401088 0.278036 20.826247 -7.686077 -5.328355 -0.147539 0.000001 -0.031347 -0.000000 0.000000 0.000000 -102.764629 9.759753 -5.903577 82.569624 -6.379716 -2.006063 21.718367 0.885831 6.358052 -0.239546 -0.000006 0.000002 -0.000000 0.000000 0.000000 
0.029301 58.908646 4.078682 0.302615 0.173531 0.934183 10.629203 0.032818 -1.550037 0.315335 0.220705 -0.432224 0.000000 0.000000 0.000000 0.118234 0.263075 -0.353244 -0.378662 -1.271492 0.326494 -11.685036 -4.574094 -4.904683 -0.000000 -0.000000 -0.000000 1.802073 -13.648141 -4.308314 0.000000 0.000000 0.000000 -0.710271 -20.139142 -61.883399 -0.000030 -60.953680 -0.000036 35.923687 2.343250 40.900853 6.371253 1.919655 21.018739 2.597048 20.266834 -24.218324 -5.407435 29.816334 4.666559 0.000001 0.000001 0.000000 -0.189493 2.911275 -27.505103 0.407945 2.149749 -21.487814 0.000003 -0.000000 -0.000000 1.321737 7.336923 -16.860346 0.311928 1.887880 -18.762642 -0.000001 -0.000000 0.000005 1.860533 9.917033 -14.489253 0.201471 1.524657 -15.054171 -0.000000 -0.000000 0.000001 1.949153 10.829337 -13.919244 0.169494 1.400405 -13.801251 -0.000001 0.000001 -0.000000 3.202635 -5.492629 7.084810 0.000000 0.000000 0.000000 -7.091205 36.919693 67.729255 -0.000024 54.479368 0.000036 45.560350 5.928807 -36.554708 -9.324218 -1.588508 -17.520810 3.726568 -24.479060 34.758228 -6.434085 -37.689090 -10.993005 0.000000 0.000001 0.000001 2.954048 1.012876 13.461923 0.493625 -2.088506 26.593545 0.000001 -0.000002 -0.000001 0.105324 -3.658244 2.530007 0.599062 -2.286864 29.355125 -0.000002 -0.000000 -0.000002 0.455242 -7.625777 4.309845 0.111686 -1.014850 12.559484 0.000002 0.000001 -0.000001 -11.184688 -10.181513 7.087838 0.029329 -0.522422 6.426608 0.000002 -0.000000 -0.000002 -101.652182 -9.189400 10.385510 82.256569 6.477850 0.359401 21.093701 -7.567757 -5.332426 -0.161294 0.000006 -0.000001 0.000000 -0.000000 0.000000 -103.053184 9.753837 -5.714971 82.771811 -6.395543 -2.133707 21.988457 0.741322 6.318106 -0.285616 -0.000301 0.215129 -0.000000 0.000000 -0.000000 
